# xmcd
#
# Track frame offsets: 
#        150
#        12590
#        25800
#        41440
#        53890
#        68777
#        85567
#        99580
#        121190
#        134705
#        147955
#        161687
#        173222
#        189852
#        204880
#        221495
#
# Disc length: 3207 seconds
#
# Revision: 4
# Processed by: cddbd v1.5.2PL0 Copyright (c) Steve Scherf et al.
# Submitted via: ExactAudioCopy v0.99pb5
#
DISCID=d80c8510
DTITLE=Peter Green Splinter Group - Me and the Devil - The Robert John
DTITLE=son Songbook [CD 2 of 3)
DYEAR=2005
DGENRE=Blues
TTITLE0=When You Got A Good Friend
TTITLE1=32-20 Blues
TTITLE2=Phonograph Blues
TTITLE3=Last Fair Deal Gone Down
TTITLE4=Stop Breakin' Down Blues
TTITLE5=Terraplane Blues
TTITLE6=Walkin' Blues
TTITLE7=Love In Vain Blues
TTITLE8=Ramblin' On My Mind
TTITLE9=Stones In My Passway
TTITLE10=Me And The Devil Blues
TTITLE11=Honeymoon Blues
TTITLE12=Kind Hearted Woman Blues
TTITLE13=I Believe I'll Dust My Broom
TTITLE14=If I Had Possession Over Judgement Day
TTITLE15=Sweet Home Chicago
EXTD=
EXTT0=
EXTT1=
EXTT2=
EXTT3=
EXTT4=
EXTT5=
EXTT6=
EXTT7=
EXTT8=
EXTT9=
EXTT10=
EXTT11=
EXTT12=
EXTT13=
EXTT14=
EXTT15=
PLAYORDER=
